<?xml version="1.0" encoding="UTF-8" standalone="no"?>
<!-- Created with Inkscape (http://www.inkscape.org/) -->

<svg
   xmlns:dc="http://purl.org/dc/elements/1.1/"
   xmlns:cc="http://creativecommons.org/ns#"
   xmlns:rdf="http://www.w3.org/1999/02/22-rdf-syntax-ns#"
   xmlns:svg="http://www.w3.org/2000/svg"
   xmlns="http://www.w3.org/2000/svg"
   xmlns:sodipodi="http://sodipodi.sourceforge.net/DTD/sodipodi-0.dtd"
   xmlns:inkscape="http://www.inkscape.org/namespaces/inkscape"
   inkscape:version="0.91 r13725"
   version="1.1"
   id="svg2"
   viewBox="0 0 744.09448819 1052.3622047"
   height="297mm"
   width="210mm"
   sodipodi:docname="boulder.svg">
  <sodipodi:namedview
     inkscape:window-maximized="1"
     inkscape:window-y="1517"
     inkscape:window-x="1916"
     inkscape:window-height="1027"
     inkscape:window-width="1920"
     showgrid="false"
     inkscape:current-layer="layer1"
     inkscape:document-units="px"
     inkscape:cy="692.01274"
     inkscape:cx="-71.970634"
     inkscape:zoom="0.7"
     inkscape:pageshadow="2"
     inkscape:pageopacity="0.0"
     borderopacity="1.0"
     bordercolor="#666666"
     pagecolor="#ffffff"
     id="base" />
  <defs
     id="defs4">
    <inkscape:path-effect
       effect="spiro"
       id="path-effect5863"
       is_visible="true" />
    <inkscape:path-effect
       effect="spiro"
       id="path-effect5859"
       is_visible="true" />
  </defs>
  <metadata
     id="metadata7">
    <rdf:RDF>
      <cc:Work
         rdf:about="">
        <dc:format>image/svg+xml</dc:format>
        <dc:type
           rdf:resource="http://purl.org/dc/dcmitype/StillImage" />
        <dc:title></dc:title>
      </cc:Work>
    </rdf:RDF>
  </metadata>
  <g
     id="layer1"
     inkscape:groupmode="layer"
     inkscape:label="Layer 1">
    <path
       sodipodi:nodetypes="sscss"
       inkscape:connector-curvature="0"
       id="path4146"
       d="m 523.25904,414.45086 c -10e-6,100.42053 -298.20516,47.98225 -400.02042,47.98224 -101.815265,0 -67.175148,-257.67855 -67.175148,-358.09907 C 56.063469,3.9135004 345.08188,90.480594 442.9519,62.412702 585.70774,21.472123 523.25904,314.03033 523.25904,414.45086 Z"
       style="opacity:1;fill:#918a6f;fill-opacity:1;stroke:#000000;stroke-width:0;stroke-miterlimit:4;stroke-dasharray:none;stroke-opacity:1" />
    <path
       style="opacity:1;fill:#f3f2f0;fill-opacity:1;stroke:#000000;stroke-width:0;stroke-miterlimit:4;stroke-dasharray:none;stroke-opacity:1"
       d="m 496.40647,200.84334 c 0,30.44489 -255.73272,14.54697 -343.04674,14.54697 -87.314045,0 -56.741324,-78.12143 -56.741324,-108.56633 -1.2e-5,-30.44489 246.988134,-4.2 330.918824,-12.709454 122.42356,-12.412119 68.86924,76.283924 68.86924,106.728814 z"
       id="path4149"
       inkscape:connector-curvature="0"
       sodipodi:nodetypes="sssss" />
    <g
       id="g5166"
       transform="translate(4.040609,-1.0101521)"
       style="opacity:0.925">
      <path
         id="path5170"
         d="m 521.69173,403.60564 c -10e-6,97.08835 -296.18266,46.39009 -397.30739,46.39008 -101.124727,0 -65.716245,-249.12821 -65.716245,-346.21656 -4e-6,-97.0883523 286.054915,-13.393744 383.261155,-40.530282 141.78764,-39.582081 79.76248,243.268402 79.76248,340.356762 0,0 0,0 0,0"
         style="opacity:1;fill:#938c72;fill-opacity:1;stroke:#000000;stroke-width:0;stroke-miterlimit:4;stroke-dasharray:none;stroke-opacity:1"
         inkscape:connector-curvature="0" />
      <path
         id="path5172"
         d="m 520.12442,392.76042 c -10e-6,93.75618 -294.16016,44.79793 -394.59435,44.79792 -100.434199,0 -65.267505,-240.57787 -65.267505,-334.33404 -4e-6,-93.756185 284.101575,-12.934063 380.644045,-39.139247 140.81943,-38.223583 79.21781,234.919177 79.21781,328.675367 0,0 0,0 0,0"
         style="opacity:1;fill:#968f75;fill-opacity:1;stroke:#000000;stroke-width:0;stroke-miterlimit:4;stroke-dasharray:none;stroke-opacity:1"
         inkscape:connector-curvature="0" />
      <path
         id="path5174"
         d="m 518.55711,381.91519 c -10e-6,90.42401 -292.13767,43.20579 -391.88132,43.20578 -99.743661,0 -64.818756,-232.02754 -64.818756,-322.45154 -4e-6,-90.424008 282.148236,-12.474371 378.026926,-37.748201 139.85123,-36.865085 78.67315,226.569951 78.67315,316.993961 0,0 0,0 0,0"
         style="opacity:1;fill:#989279;fill-opacity:1;stroke:#000000;stroke-width:0;stroke-miterlimit:4;stroke-dasharray:none;stroke-opacity:1"
         inkscape:connector-curvature="0" />
      <path
         id="path5176"
         d="m 516.9898,371.06997 c 0,87.09184 -290.11517,41.61363 -389.16829,41.61362 -99.053124,0 -64.370006,-223.47719 -64.370006,-310.56902 C 63.4515,15.02273 343.6464,90.09988 438.86131,65.757404 577.74434,30.250818 516.9898,283.97814 516.9898,371.06997 c 0,0 0,0 0,0"
         style="opacity:1;fill:#9b957c;fill-opacity:1;stroke:#000000;stroke-width:0;stroke-miterlimit:4;stroke-dasharray:none;stroke-opacity:1"
         inkscape:connector-curvature="0" />
      <path
         id="path5178"
         d="m 515.42249,360.22475 c 0,83.75966 -288.09267,40.02147 -386.45525,40.02146 -98.362596,0 -63.921266,-214.92685 -63.921266,-298.68651 -5e-6,-83.759663 278.241556,-11.554998 372.792686,-34.96612 137.91483,-34.148088 77.58383,209.87151 77.58383,293.63117 0,0 0,0 0,0"
         style="opacity:1;fill:#9e9780;fill-opacity:1;stroke:#000000;stroke-width:0;stroke-miterlimit:4;stroke-dasharray:none;stroke-opacity:1"
         inkscape:connector-curvature="0" />
      <path
         id="path5180"
         d="m 513.85519,349.37953 c -10e-6,80.42749 -286.07018,38.42931 -383.74223,38.4293 -97.672058,0 -63.472516,-206.37651 -63.472516,-286.804 -6e-6,-80.427486 276.288216,-11.095307 370.175576,-33.575074 136.94661,-32.789591 77.03917,201.522284 77.03917,281.949774 0,0 0,0 0,0"
         style="opacity:1;fill:#a09a83;fill-opacity:1;stroke:#000000;stroke-width:0;stroke-miterlimit:4;stroke-dasharray:none;stroke-opacity:1"
         inkscape:connector-curvature="0" />
      <path
         id="path5182"
         d="m 512.28788,338.53431 c -10e-6,77.09531 -284.04768,36.83715 -381.0292,36.83715 -96.98152,0 -63.023766,-197.82618 -63.023766,-274.92149 -6e-6,-77.095318 274.334876,-10.635625 367.558456,-32.184039 135.97841,-31.431092 76.49451,193.173059 76.49451,270.268379 0,0 0,0 0,0"
         style="opacity:1;fill:#a39d87;fill-opacity:1;stroke:#000000;stroke-width:0;stroke-miterlimit:4;stroke-dasharray:none;stroke-opacity:1"
         inkscape:connector-curvature="0" />
      <path
         id="path5184"
         d="m 510.72057,327.68908 c -1e-5,73.76315 -282.02519,35.24501 -378.31616,35.245 -96.290992,0 -62.575027,-189.27584 -62.575027,-263.03898 -6e-6,-73.763141 272.381537,-10.175933 364.941337,-30.792993 135.01021,-30.072594 75.94985,184.823833 75.94985,258.586973 0,0 0,0 0,0"
         style="opacity:1;fill:#a5a08a;fill-opacity:1;stroke:#000000;stroke-width:0;stroke-miterlimit:4;stroke-dasharray:none;stroke-opacity:1"
         inkscape:connector-curvature="0" />
      <path
         id="path5186"
         d="m 509.15326,316.84386 c -10e-6,70.43097 -280.00269,33.65285 -375.60313,33.65284 -95.600454,0 -62.126277,-180.7255 -62.126277,-251.156466 -7e-6,-70.430968 270.428197,-9.716246 362.324227,-29.401951 134.042,-28.714097 75.40518,176.474607 75.40518,246.905577 0,0 0,0 0,0"
         style="opacity:1;fill:#a8a28d;fill-opacity:1;stroke:#000000;stroke-width:0;stroke-miterlimit:4;stroke-dasharray:none;stroke-opacity:1"
         inkscape:connector-curvature="0" />
      <path
         id="path5188"
         d="m 507.58595,305.99864 c -1e-5,67.0988 -277.98019,32.06069 -372.8901,32.06068 -94.909916,0 -61.677527,-172.17516 -61.677527,-239.273952 -7e-6,-67.098794 268.474857,-9.256558 359.707107,-28.01091 133.0738,-27.355598 74.86052,168.125382 74.86052,235.224182 0,0 0,0 0,0"
         style="opacity:1;fill:#aba591;fill-opacity:1;stroke:#000000;stroke-width:0;stroke-miterlimit:4;stroke-dasharray:none;stroke-opacity:1"
         inkscape:connector-curvature="0" />
      <path
         id="path5190"
         d="m 506.01864,295.15342 c 0,63.76662 -275.95769,30.46853 -370.17706,30.46853 -94.219389,0 -61.228787,-163.62482 -61.228787,-227.391448 -8e-6,-63.766621 266.521527,-8.796871 357.089987,-26.619868 132.1056,-25.9971 74.31586,159.776166 74.31586,223.542786 0,0 0,0 0,0"
         style="opacity:1;fill:#ada894;fill-opacity:1;stroke:#000000;stroke-width:0;stroke-miterlimit:4;stroke-dasharray:none;stroke-opacity:1"
         inkscape:connector-curvature="0" />
      <path
         id="path5192"
         d="m 504.45133,284.3082 c 0,60.43445 -273.93519,28.87637 -367.46403,28.87637 -93.528851,0 -60.780037,-155.07448 -60.780037,-215.508934 -8e-6,-60.434448 264.568187,-8.337183 354.472867,-25.228827 131.1374,-24.638601 73.7712,151.426941 73.7712,211.861391 0,0 0,0 0,0"
         style="opacity:1;fill:#b0ab98;fill-opacity:1;stroke:#000000;stroke-width:0;stroke-miterlimit:4;stroke-dasharray:none;stroke-opacity:1"
         inkscape:connector-curvature="0" />
      <path
         id="path5194"
         d="m 502.88402,273.46298 c 0,57.10227 -271.91269,27.28421 -364.751,27.28421 -92.838313,0 -60.331287,-146.52414 -60.331287,-203.62642 -9e-6,-57.102275 262.614847,-7.877496 351.855757,-23.837785 130.16919,-23.280104 73.22653,143.077715 73.22653,200.179995 0,0 0,0 0,0"
         style="opacity:1;fill:#b3ad9b;fill-opacity:1;stroke:#000000;stroke-width:0;stroke-miterlimit:4;stroke-dasharray:none;stroke-opacity:1"
         inkscape:connector-curvature="0" />
      <path
         id="path5196"
         d="m 501.31671,262.61775 c 0,53.77011 -269.8902,25.69207 -362.03796,25.69206 -92.147785,0 -59.882548,-137.9738 -59.882548,-191.743907 -9e-6,-53.7701 260.661508,-7.417807 349.238638,-22.446742 129.20099,-21.921606 72.68187,134.728489 72.68187,188.498589 0,0 0,0 0,0"
         style="opacity:1;fill:#b5b09f;fill-opacity:1;stroke:#000000;stroke-width:0;stroke-miterlimit:4;stroke-dasharray:none;stroke-opacity:1"
         inkscape:connector-curvature="0" />
      <path
         id="path5198"
         d="m 499.7494,251.77253 c 0,50.43793 -267.8677,24.09991 -359.32493,24.09991 -91.457247,0 -59.433798,-129.42347 -59.433798,-179.861403 C 80.990663,45.57311 339.69884,89.052918 427.61219,74.955336 555.84498,54.392229 499.7494,201.3346 499.7494,251.77253 c 0,0 0,0 0,0"
         style="opacity:1;fill:#b8b3a2;fill-opacity:1;stroke:#000000;stroke-width:0;stroke-miterlimit:4;stroke-dasharray:none;stroke-opacity:1"
         inkscape:connector-curvature="0" />
      <path
         id="path5200"
         d="m 498.1821,240.92731 c -10e-6,47.10576 -265.84521,22.50775 -356.61191,22.50775 -90.766709,0 -58.985048,-120.87313 -58.985048,-167.978889 -1e-5,-47.105754 256.754828,-6.498432 344.004408,-19.664659 127.26457,-19.20461 71.59255,118.030038 71.59255,165.135798 0,0 0,0 0,0"
         style="opacity:1;fill:#bab6a5;fill-opacity:1;stroke:#000000;stroke-width:0;stroke-miterlimit:4;stroke-dasharray:none;stroke-opacity:1"
         inkscape:connector-curvature="0" />
      <path
         id="path5202"
         d="m 496.61479,230.08209 c -1e-5,43.77358 -263.82271,20.91559 -353.89887,20.91559 -90.076181,0 -58.536308,-112.32279 -58.536308,-156.096375 C 84.179601,51.127725 338.9811,88.862561 425.5669,76.627688 551.86327,58.781576 496.61479,186.3085 496.61479,230.08209 c 0,0 0,0 0,0"
         style="opacity:1;fill:#bdb8a9;fill-opacity:1;stroke:#000000;stroke-width:0;stroke-miterlimit:4;stroke-dasharray:none;stroke-opacity:1"
         inkscape:connector-curvature="0" />
      <path
         id="path5204"
         d="m 495.04748,219.23687 c 0,40.44141 -261.80021,19.32343 -351.18584,19.32343 -89.385644,0 -58.087558,-103.77244 -58.087558,-144.213861 -1.1e-5,-40.441407 252.848148,-5.579057 338.770168,-16.882576 125.32817,-16.487613 70.50323,101.331597 70.50323,141.773007 0,0 0,0 0,0"
         style="opacity:1;fill:#c0bbac;fill-opacity:1;stroke:#000000;stroke-width:0;stroke-miterlimit:4;stroke-dasharray:none;stroke-opacity:1"
         inkscape:connector-curvature="0" />
      <path
         id="path5206"
         d="m 493.48017,208.39164 c 0,37.10924 -259.77772,17.73129 -348.47281,17.73129 -88.695106,0 -57.638809,-95.22211 -57.638809,-132.331358 -1.1e-5,-37.109233 250.894809,-5.119368 336.153049,-15.491533 124.35997,-15.129115 69.95857,92.982371 69.95857,130.091601 0,0 0,0 0,0"
         style="opacity:1;fill:#c2beb0;fill-opacity:1;stroke:#000000;stroke-width:0;stroke-miterlimit:4;stroke-dasharray:none;stroke-opacity:1"
         inkscape:connector-curvature="0" />
      <path
         id="path5208"
         d="m 491.91286,197.54642 c 0,33.77707 -257.75522,16.13913 -345.75977,16.13913 -88.004578,0 -57.190069,-86.67177 -57.190069,-120.448844 -1.1e-5,-33.777059 248.941469,-4.659681 333.535939,-14.100492 123.39176,-13.770617 69.4139,84.633146 69.4139,118.410206 0,0 0,0 0,0"
         style="opacity:1;fill:#c5c1b3;fill-opacity:1;stroke:#000000;stroke-width:0;stroke-miterlimit:4;stroke-dasharray:none;stroke-opacity:1"
         inkscape:connector-curvature="0" />
      <path
         id="path5210"
         d="m 490.34555,186.7012 c 0,30.44489 -255.73272,14.54697 -343.04674,14.54697 -87.31404,0 -56.741319,-78.12143 -56.741319,-108.56633 -1.2e-5,-30.444886 246.988129,-4.199993 330.918819,-12.70945 122.42356,-12.412119 68.86924,76.28392 68.86924,106.72881 0,0 0,0 0,0"
         style="opacity:1;fill:#c8c4b7;fill-opacity:1;stroke:#000000;stroke-width:0;stroke-miterlimit:4;stroke-dasharray:none;stroke-opacity:1"
         inkscape:connector-curvature="0" />
    </g>
    <path
       style="fill:none;fill-rule:evenodd;stroke:#000000;stroke-width:1px;stroke-linecap:butt;stroke-linejoin:miter;stroke-opacity:0.5029586"
       d="m 534.28572,287.36218 c -1.09143,0.87314 -2.25793,1.93707 -3.57143,2.5 -1.03807,0.44489 -2.18614,0.60409 -3.21429,1.07143 -0.30654,0.13933 -0.47619,0.47619 -0.71428,0.71429 -0.35715,0.35714 -0.68342,0.74808 -1.07143,1.07142 -0.32975,0.27479 -0.71429,0.47619 -1.07143,0.71429 -0.35714,0.2381 -0.68751,0.52233 -1.07143,0.71429 -10.51124,5.25562 0.55931,-0.96074 -4.28571,2.5 -0.68744,0.49102 -1.89265,0.75372 -2.5,1.42857 -0.79639,0.88487 -1.38074,1.94259 -2.14286,2.85714 -0.43112,0.51735 -1.01512,0.89699 -1.42857,1.42857 -0.81659,1.0499 -1.13606,2.29902 -2.14286,3.21429 -0.88088,0.8008 -2.01535,1.30106 -2.85714,2.14285 -0.2662,0.2662 -0.14832,0.7582 -0.35715,1.07143 -0.28016,0.42025 -0.75591,0.67703 -1.07142,1.07143 -2.03723,2.54653 1.86493,-1.65325 -0.71429,1.78572 -0.15972,0.21295 -0.52606,0.16891 -0.71429,0.35714 -0.0842,0.0842 0.0532,0.25066 0,0.35714 -0.0753,0.15059 -0.28185,0.20656 -0.35714,0.35714 -0.11327,0.22655 0.116,1.55371 0,1.78572 -0.0753,0.15058 -0.20656,0.28185 -0.35714,0.35714 -0.10648,0.0532 -0.30391,-0.10648 -0.35714,0 -0.10648,0.21296 0.10647,0.50133 0,0.71429 -0.0532,0.10648 -0.27297,-0.0842 -0.35715,0 -0.0842,0.0842 0.0289,0.24165 0,0.35714 -0.0913,0.36522 -0.18878,0.73471 -0.35714,1.07143 -0.0753,0.15058 -0.3039,0.19742 -0.35714,0.35714 -0.0753,0.22588 0.10648,0.50133 0,0.71429 -0.15059,0.30117 -0.51226,0.44491 -0.71429,0.71428 -0.46809,0.62413 -0.35415,1.06545 -0.71428,1.78572 -0.0753,0.15058 -0.26376,0.21706 -0.35715,0.35714 -0.14766,0.22149 -0.16891,0.52605 -0.35714,0.71429 -0.18823,0.18823 -0.56663,0.13565 -0.71429,0.35714 -0.13207,0.19811 0.10648,0.50133 0,0.71428 -0.10648,0.21296 -0.54592,-0.16835 -0.71428,0 -0.16836,0.16836 0.16836,0.54593 0,0.71429 -0.0842,0.0842 -0.24165,-0.0289 -0.35714,0 -0.36523,0.0913 -0.80523,0.0909 -1.07143,0.35714 -0.2662,0.2662 -0.091,0.80523 -0.35715,1.07143 -0.26619,0.2662 -0.73471,0.18879 -1.07142,0.35714 -0.30117,0.15059 -0.41312,0.56371 -0.71429,0.71429 -0.57341,0.2867 -1.21231,0.42758 -1.78571,0.71429 -0.30117,0.15058 -0.38411,0.64825 -0.71429,0.71428 -1.20241,0.24048 -1.45323,-0.3407 -2.5,0.35714 -0.42025,0.28017 -0.61968,0.84556 -1.07143,1.07143 -1.04865,1.69568 -2.68232,0.24695 -3.92857,0.71429 -0.55734,0.209 -0.88464,0.82968 -1.42857,1.07143 -0.55471,0.24653 -1.20008,0.19742 -1.78572,0.35714 -0.72639,0.19811 -1.42168,0.49793 -2.14285,0.71429 -2.21912,0.66573 -4.51799,0.99247 -6.78572,1.42857 -12.82473,2.46629 -2.06903,0.58819 -11.78571,2.14285 -10.8033,1.72853 2.86103,-0.55642 -9.28572,2.14286 -6.77825,1.50628 -2.3736,0.21846 -8.57143,0.71429 -5.22895,0.41831 -3.86344,0.81549 -8.21428,1.07143 -0.95074,0.0559 -1.91129,-0.11128 -2.85714,0 -1.09005,0.12824 -2.12949,0.54739 -3.21429,0.71428 -0.47065,0.0724 -0.95717,-0.0673 -1.42857,0 -0.37268,0.0532 -0.70228,0.28331 -1.07143,0.35714 -0.23347,0.0467 -0.51618,-0.13207 -0.71429,0 -0.22149,0.14766 -0.16891,0.52606 -0.35714,0.71429 -0.0842,0.0842 -0.23809,0 -0.35714,0 -0.14118,0 -1.63319,-0.0763 -1.78572,0 -1.48634,0.74317 0.3818,-0.0247 -0.35714,0.71429 -0.0842,0.0842 -0.23809,0 -0.35714,0 -0.35714,0 -0.71429,0 -1.07143,0 -1.90476,0 -3.80952,0 -5.71429,0 -0.36903,0 -2.66711,0.0475 -2.85714,0 -0.5165,-0.12913 -0.90651,-0.60988 -1.42857,-0.71429 -0.70041,-0.14008 -1.43104,0.0593 -2.14286,0 -6.14044,-0.5117 2.31474,-0.14375 -4.64285,-1.07143 -0.94403,-0.12587 -1.90719,0.0679 -2.85715,0 -0.72229,-0.0516 -1.43278,-0.21513 -2.14285,-0.35714 -2.51331,-0.50266 -4.56012,-1.12472 -7.14286,-1.42857 -0.70939,-0.0835 -1.42857,0 -2.14286,0 -0.95238,-0.2381 -1.88881,-0.5529 -2.85714,-0.71429 -0.46971,-0.0783 -0.95529,0.0526 -1.42857,0 -0.60332,-0.067 -1.18479,-0.27129 -1.78572,-0.35714 -0.2357,-0.0337 -0.4833,0.0577 -0.71428,0 -0.25825,-0.0646 -0.46175,-0.27296 -0.71429,-0.35714 -0.28746,-0.0958 -1.20035,0.11411 -1.42857,0 -0.38392,-0.19196 -0.68751,-0.52233 -1.07143,-0.71429 -0.10648,-0.0532 -0.23809,0 -0.35714,0 -0.59524,0 -1.19048,0 -1.78572,0 -1.42857,0 -2.85714,0 -4.28571,0 -0.47619,0 -0.95238,0 -1.42857,0 -0.47619,0 -0.95529,0.0526 -1.42857,0 -0.60332,-0.067 -1.1824,-0.29011 -1.78572,-0.35714 -0.47327,-0.0526 -0.95238,0 -1.42857,0 -0.47619,0 -0.95238,0 -1.42857,0 -2.61905,0 -5.23809,0 -7.85714,0 -2.26191,0 -4.52381,0 -6.78572,0 -0.47619,0 -0.95238,0 -1.42857,0 -0.71428,0 -1.43829,-0.11743 -2.14286,0 -0.74267,0.12378 -1.42168,0.49793 -2.14285,0.71428 -0.47015,0.14105 -0.95502,0.228 -1.42857,0.35715 -0.83615,0.22803 -1.66259,0.49097 -2.5,0.71428 -0.94855,0.25295 -1.94089,0.36188 -2.85715,0.71429 -5.84598,2.24845 1.81359,-0.0918 -3.21428,2.14285 -6.15471,1.23095 1.34273,-0.70627 -2.5,1.42858 -0.75762,0.42089 -1.6778,0.44021 -2.5,0.71428 -0.25254,0.0842 -0.52606,0.16891 -0.71429,0.35714 -0.30351,0.30352 -0.35714,0.83334 -0.71428,1.07143 -0.40841,0.27228 -0.96898,0.1848 -1.42858,0.35715 -1.25272,-0.32507 -1.3538,1.0904 -2.14285,1.42857 -0.55795,0.23912 -1.24278,0.0857 -1.78572,0.35714 -0.45175,0.22588 -0.66043,0.77786 -1.07143,1.07143 -0.43322,0.30945 -0.96317,0.45573 -1.42857,0.71428 -0.6068,0.33712 -1.15138,0.78951 -1.78571,1.07143 -0.44854,0.19935 -1.0024,0.11362 -1.42857,0.35715 -2.78711,1.59263 0.85855,0.65016 -2.5,2.14285 -0.55471,0.24654 -1.24278,0.0857 -1.78572,0.35715 -0.45175,0.22587 -0.62991,0.82614 -1.07143,1.07142 -0.65817,0.36566 -1.46942,0.37757 -2.14285,0.71429 -2.60113,1.30056 -0.35559,0.71325 -2.5,2.14286 -4.38888,2.92592 -0.0652,-0.28847 -3.92857,1.42857 -0.54394,0.24175 -0.90824,0.78235 -1.42858,1.07143 -0.56041,0.31134 -1.24207,0.37451 -1.78571,0.71428 -0.4283,0.26769 -0.63833,0.81157 -1.07143,1.07143 -0.20416,0.1225 -0.49322,-0.0884 -0.71428,0 -0.0108,0.004 -2.10016,1.40295 -2.14286,1.42857 -0.45653,0.27392 -0.97205,0.44037 -1.42857,0.71429 -0.73613,0.44168 -1.37503,1.04465 -2.14286,1.42857 -0.57341,0.2867 -1.19646,0.46175 -1.78571,0.71429 -0.24468,0.10486 -0.50642,0.19085 -0.71429,0.35714 -0.3944,0.31552 -0.65118,0.79126 -1.07143,1.07143 -0.31323,0.20882 -0.71428,0.23809 -1.07143,0.35714 -0.47619,0.2381 -0.99534,0.40484 -1.42857,0.71429 -0.411,0.29357 -0.59851,0.89408 -1.07143,1.07142 -0.55734,0.20901 -1.2386,-0.23447 -1.78571,0 -0.39453,0.16909 -0.34161,0.85847 -0.71429,1.07143 -0.52704,0.30117 -1.231,0.11061 -1.78571,0.35715 -0.54394,0.24174 -0.9333,0.74125 -1.42857,1.07142 -0.57758,0.38506 -1.17891,0.73432 -1.78572,1.07143 -5.43866,3.02148 3.04666,-1.71121 -3.21428,1.07143 -0.54394,0.24175 -0.89618,0.80523 -1.42857,1.07143 -0.43903,0.21951 -0.98955,0.13763 -1.42858,0.35714 -0.30116,0.15059 -0.44491,0.51226 -0.71428,0.71429 -0.62412,0.46809 -1.06545,0.35415 -1.78572,0.71428 -0.38391,0.19196 -0.70336,0.49345 -1.07142,0.71429 -1.72059,1.03235 0.60336,-0.61573 -2.5,0.71429 -3.53749,1.51606 2.46396,0.009 -1.78572,1.07142 -0.11549,0.0289 -0.24165,-0.0289 -0.35714,0 -0.36522,0.0913 -0.70621,0.26584 -1.07143,0.35715 -0.11549,0.0289 -0.27296,-0.0842 -0.35714,0 -0.18823,0.18823 -0.13565,0.56662 -0.35715,0.71428 -0.1981,0.13207 -0.48329,-0.0577 -0.71428,0 -0.25825,0.0646 -0.45604,0.29258 -0.71429,0.35715 -0.17399,0.0435 -1.23972,-0.0944 -1.42857,0 -0.15058,0.0753 -0.19742,0.3039 -0.35714,0.35714 -0.37951,0.1265 -1.04907,-0.1265 -1.42857,0 -0.25254,0.0842 -0.46175,0.27296 -0.71429,0.35714 -0.11294,0.0376 -0.24165,-0.0289 -0.35714,0 -0.36522,0.0913 -0.70009,0.29525 -1.07143,0.35714 -2.14795,0.358 -0.0504,-0.86765 -3.21429,0.71429 -0.53239,0.2662 -0.86387,0.8832 -1.42857,1.07143 -0.91054,0.30351 -1.92193,0.14132 -2.85714,0.35714 -0.62467,0.14416 -1.20209,0.449 -1.78571,0.71429 -2.00343,0.91064 -1.97363,1.13406 -3.92858,1.78571 -2.54729,0.8491 -0.30058,-0.008 -2.85714,0.35714 -2.7451,0.39216 0.36415,0.084 -1.42857,1.42858 -0.7619,0.57142 -0.85714,-0.19048 -1.42857,0 -1.22123,0.40707 -0.26577,0.29622 -1.42857,1.07142 -0.0991,0.066 -0.25067,-0.0532 -0.35715,0 -0.15058,0.0753 -0.19742,0.30391 -0.35714,0.35715 -0.22588,0.0753 -0.50133,-0.10648 -0.71428,0 -0.10648,0.0532 0.0532,0.25066 0,0.35714 -0.0753,0.15058 -0.21706,0.26375 -0.35715,0.35714 -1.80421,1.20281 -0.008,0.003 -1.07143,0.35715 -0.25253,0.0842 -0.46174,0.27296 -0.71428,0.35714 -0.11294,0.0376 -0.27296,-0.0842 -0.35714,0 -0.0842,0.0842 0.10648,0.3039 0,0.35714 -0.21296,0.10648 -0.51618,-0.13207 -0.71429,0 -0.22149,0.14766 -0.16891,0.52606 -0.35714,0.71429 -0.0842,0.0842 -0.27297,-0.0842 -0.35715,0 -0.59523,0.59524 1.30953,0.35714 -0.71428,0.35714"
       id="path5855"
       inkscape:connector-curvature="0" />
    <path
       style="fill:none;fill-rule:evenodd;stroke:#000000;stroke-width:1px;stroke-linecap:butt;stroke-linejoin:miter;stroke-opacity:0.40236688"
       d="m 110.10663,442.73512 c 1.82759,-8.78835 1.99984,-17.91801 0.50507,-26.76904 -0.61401,-3.63574 -1.5139,-7.24569 -3.03045,-10.6066 -2.30859,-5.11622 -5.95924,-9.48435 -9.091377,-14.14214 -2.443646,-3.63394 -4.594918,-7.49028 -6.060915,-11.61675 -2.855932,-8.03884 -3.007673,-16.73909 -3.535534,-25.25382 -0.220215,-3.55221 -0.501923,-7.193 0.505076,-10.6066 1.145265,-3.88231 3.858217,-7.10725 6.801012,-9.88644 2.942794,-2.77919 6.192628,-5.24859 8.856348,-8.2963 3.43998,-3.93587 5.80207,-8.74498 7.21738,-13.77703 1.4153,-5.03205 1.90817,-10.29022 1.874,-15.5174 -0.0121,-1.85222 -0.0895,-3.70574 0,-5.55584 0.17982,-3.71706 1.0318,-7.39032 1.01015,-11.11167 -0.0261,-4.47963 -1.32348,-8.87488 -3.15063,-12.96503 -1.82714,-4.09016 -4.18015,-7.91919 -6.44582,-11.78371 -2.82057,-4.81098 -5.51553,-9.69561 -8.081219,-14.64721"
       id="path5861"
       inkscape:path-effect="#path-effect5863"
       inkscape:original-d="m 110.10663,442.73512 c -0.2387,-6.75288 4.57959,-20.65727 0.50507,-26.76904 -1.87492,-2.81239 -1.93145,-7.30959 -3.03045,-10.6066 -1.45201,-4.35602 -8.212136,-10.62517 -9.091377,-14.14214 -0.963603,-3.85441 -4.683347,-7.48405 -6.060915,-11.61675 -2.639646,-7.91894 -3.535534,-15.90096 -3.535534,-25.25382 0,-2.40876 -0.822378,-8.39417 0.505076,-10.6066 3.323753,-5.53959 13.76844,-14.4049 15.65736,-18.18274 4.06098,-8.12195 7.48316,-19.64512 9.09138,-29.29443 0.26886,-1.61317 -0.60584,-4.04125 0,-5.55584 0.90355,-2.25889 2.1234,-8.32855 1.01015,-11.11167 -2.93767,-7.34419 -5.32123,-18.33591 -9.59645,-24.74874 -2.53982,-3.80973 -6.610231,-10.23425 -8.081219,-14.64721"
       inkscape:connector-curvature="0" />
  </g>
</svg>
